<?xml version="1.0" standalone="no"?>
<!DOCTYPE svg PUBLIC "-//W3C//DTD SVG 20010904//EN"
 "http://www.w3.org/TR/2001/REC-SVG-20010904/DTD/svg10.dtd">
<svg version="1.0" xmlns="http://www.w3.org/2000/svg"
 width="581.000000pt" height="581.000000pt" viewBox="0 0 581.000000 581.000000"
 preserveAspectRatio="xMidYMid meet">
<metadata>
Created by potrace 1.14, written by Peter Selinger 2001-2017
</metadata>
<g transform="translate(0.000000,581.000000) scale(0.100000,-0.100000)"
fill="#000000" stroke="none">
<path d="M2317 5729 c-11 -6 -25 -26 -32 -44 -13 -29 -11 -46 20 -176 47 -197
53 -241 54 -410 3 -244 -37 -420 -141 -622 -100 -194 -235 -352 -572 -666
-104 -97 -231 -225 -284 -286 -257 -299 -401 -602 -469 -990 -24 -138 -24
-509 1 -645 62 -349 187 -640 385 -903 290 -385 739 -660 1229 -753 202 -38
454 -44 657 -15 311 44 569 134 809 283 152 94 311 211 368 269 31 33 60 59
65 59 5 0 17 15 28 33 10 17 22 34 25 37 4 3 18 23 32 46 14 22 44 59 67 83
50 52 86 112 100 168 7 23 16 45 20 48 5 3 12 23 16 44 4 22 13 42 21 45 8 3
14 12 14 21 0 8 11 39 25 68 14 28 28 68 31 87 3 19 9 40 12 45 4 6 7 15 9 20
1 6 14 53 27 105 80 299 88 704 21 973 -67 265 -191 531 -339 727 -128 170
-240 286 -288 298 -71 19 -142 -20 -173 -95 -7 -17 -32 -99 -55 -180 -48 -172
-100 -286 -166 -363 -55 -65 -131 -124 -178 -140 -46 -15 -69 -2 -98 53 -20
37 -23 56 -23 167 1 114 4 132 32 210 17 47 37 101 46 120 34 78 74 254 93
420 53 439 -86 856 -410 1239 -190 224 -462 425 -772 572 -125 59 -170 69
-207 48z"/>
</g>
</svg>
